<svg width="36" height="25" viewBox="0 0 36 25" fill="none" xmlns="http://www.w3.org/2000/svg">
<rect y="0.710083" width="35.0764" height="24" rx="4.06" fill="#E3F2FF"/>
<path fill-rule="evenodd" clip-rule="evenodd" d="M1.5623 1.5321C0.611342 2.27517 0 3.43276 0 4.73313V20.6131C0 21.9135 0.611343 23.0711 1.5623 23.8141V1.5321Z" fill="#9BCEFB"/>
<path d="M9.89031 17.2101V13.3146H14.0149L14.4575 13.8915L14.9146 13.3146L30.592 13.3146L30.0265 14.7403C30.0265 14.7403 30.7036 15.1809 30.4756 16.1498C30.2476 17.1188 29.2156 17.2101 29.0416 17.2101H20.7517L20.2527 16.596V17.2101H18.6178V16.1618C18.6178 16.1618 18.3944 16.3082 17.9116 16.3082H17.3551V17.2101H14.8796L14.4377 16.6208L13.9891 17.2101H9.89031Z" fill="white"/>
<path d="M4.4082 12.0827L6.00376 8.21008H7.6123L8.14015 9.42475V8.21008H10.1397L10.4539 9.08801L10.7586 8.21008H19.7346V8.65145C19.7346 8.65145 20.2064 8.21008 20.9819 8.21008L23.8943 8.22026L24.413 9.41903V8.21008H26.0863L26.5469 8.89868V8.21008H28.2356V12.1056H26.5469L26.1055 11.4148V12.1056H23.647L23.3998 11.4915H22.7389L22.4956 12.1056H20.8284C20.1611 12.1056 19.7346 11.6732 19.7346 11.6732V12.1056H17.2207L16.7218 11.4915V12.1056H7.374L7.12693 11.4915H6.46811L6.22279 12.1056H5.07364L4.4082 12.0827Z" fill="white"/>
<path d="M6.33302 8.69028L5.07849 11.6071H5.89525L6.12673 11.023H7.47241L7.70268 11.6071H8.53743L7.28411 8.69028H6.33302ZM6.79717 9.36911L7.20735 10.3898H6.38579L6.79717 9.36911Z" fill="#016FD0"/>
<path d="M8.62378 11.6066V8.68978L9.78445 8.69409L10.4595 10.5747L11.1184 8.68978H12.2698V11.6066H11.5406V9.45736L10.7676 11.6066H10.1281L9.35299 9.45736V11.6066H8.62378Z" fill="#016FD0"/>
<path d="M12.7688 11.6066V8.68978H15.1483V9.34223H13.5056V9.84116H15.1099V10.4552H13.5056V10.9733H15.1483V11.6066H12.7688Z" fill="#016FD0"/>
<path d="M15.5705 8.69028V11.6071H16.2997V10.5709H16.6067L17.481 11.6071H18.3722L17.4127 10.5325C17.8064 10.4993 18.2126 10.1613 18.2126 9.63657C18.2126 9.02277 17.7309 8.69028 17.1932 8.69028H15.5705ZM16.2997 9.34273H17.1332C17.3332 9.34273 17.4786 9.49914 17.4786 9.64976C17.4786 9.84355 17.2902 9.9568 17.144 9.9568H16.2997V9.34273Z" fill="#016FD0"/>
<path d="M19.2549 11.6066H18.5103V8.68978H19.2549V11.6066Z" fill="#016FD0"/>
<path d="M21.0203 11.6066H20.8596C20.082 11.6066 19.6099 10.994 19.6099 10.1602C19.6099 9.30579 20.0767 8.68978 21.0587 8.68978H21.8647V9.3806H21.0293C20.6306 9.3806 20.3487 9.6917 20.3487 10.1674C20.3487 10.7323 20.6711 10.9695 21.1355 10.9695H21.3274L21.0203 11.6066Z" fill="#016FD0"/>
<path d="M22.6071 8.69028L21.3526 11.6071H22.1693L22.4008 11.023H23.7465L23.9767 11.6071H24.8115L23.5582 8.69028H22.6071ZM23.0712 9.36911L23.4814 10.3898H22.6598L23.0712 9.36911Z" fill="#016FD0"/>
<path d="M24.8966 11.6066V8.68978H25.8237L27.0075 10.5224V8.68978H27.7367V11.6066H26.8396L25.6259 9.72602V11.6066H24.8966Z" fill="#016FD0"/>
<path d="M10.3893 16.7111V13.7943H12.7688V14.4467H11.1261V14.9456H12.7304V15.5597H11.1261V16.0778H12.7688V16.7111H10.3893Z" fill="#016FD0"/>
<path d="M22.0489 16.7111V13.7943H24.4284V14.4467H22.7858V14.9456H24.3824V15.5597H22.7858V16.0778H24.4284V16.7111H22.0489Z" fill="#016FD0"/>
<path d="M12.8611 16.7111L14.0197 15.2707L12.8335 13.7943H13.7522L14.4587 14.707L15.1675 13.7943H16.0502L14.8796 15.2527L16.0403 16.7111H15.1218L14.4359 15.8128L13.7666 16.7111H12.8611Z" fill="#016FD0"/>
<path d="M16.1269 13.7948V16.7116H16.8753V15.7905H17.6429C18.2924 15.7905 18.7847 15.4459 18.7847 14.7758C18.7847 14.2207 18.3986 13.7948 17.7377 13.7948H16.1269ZM16.8753 14.4544H17.6837C17.8935 14.4544 18.0435 14.583 18.0435 14.7902C18.0435 14.9849 17.8943 15.126 17.6813 15.126H16.8753V14.4544Z" fill="#016FD0"/>
<path d="M19.1014 13.7943V16.7111H19.8306V15.6748H20.1376L21.0119 16.7111H21.9031L20.9436 15.6365C21.3374 15.6032 21.7435 15.2653 21.7435 14.7405C21.7435 14.1267 21.2618 13.7943 20.7241 13.7943H19.1014ZM19.8306 14.4467H20.6641C20.8641 14.4467 21.0095 14.6031 21.0095 14.7537C21.0095 14.9475 20.8211 15.0608 20.6749 15.0608H19.8306V14.4467Z" fill="#016FD0"/>
<path d="M24.7661 16.7111V16.0778H26.2255C26.4415 16.0778 26.535 15.9611 26.535 15.8332C26.535 15.7105 26.4417 15.5866 26.2255 15.5866H25.566C24.9928 15.5866 24.6736 15.2373 24.6736 14.713C24.6736 14.2453 24.9659 13.7943 25.8177 13.7943H27.2378L26.9307 14.4505H25.7026C25.4678 14.4505 25.3956 14.5737 25.3956 14.6914C25.3956 14.8123 25.4849 14.9456 25.6642 14.9456H26.355C26.9941 14.9456 27.2714 15.3081 27.2714 15.7828C27.2714 16.2931 26.9624 16.7111 26.3203 16.7111H24.7661Z" fill="#016FD0"/>
<path d="M27.4425 16.7111V16.0778H28.9019C29.1178 16.0778 29.2113 15.9611 29.2113 15.8332C29.2113 15.7105 29.1181 15.5866 28.9019 15.5866H28.2424C27.6692 15.5866 27.3499 15.2373 27.3499 14.713C27.3499 14.2453 27.6423 13.7943 28.4941 13.7943H29.9141L29.6071 14.4505H28.379C28.1442 14.4505 28.0719 14.5737 28.0719 14.6914C28.0719 14.8123 28.1612 14.9456 28.3406 14.9456H29.0314C29.6704 14.9456 29.9477 15.3081 29.9477 15.7828C29.9477 16.2931 29.6387 16.7111 28.9966 16.7111H27.4425Z" fill="#016FD0"/>
</svg>
