<svg width="36" height="25" viewBox="0 0 36 25" fill="none" xmlns="http://www.w3.org/2000/svg">
<rect y="0.710083" width="35.0764" height="24" rx="4.06" fill="#FEF5E9"/>
<path fill-rule="evenodd" clip-rule="evenodd" d="M1.5623 1.5321C0.611342 2.27517 0 3.43276 0 4.73313V20.6131C0 21.9135 0.611343 23.0711 1.5623 23.8141V1.5321Z" fill="#FDD4BD"/>
<path d="M17.5 8.38074C16.2169 9.38762 15.3925 10.9526 15.3925 12.7101C15.3925 14.4676 16.2169 16.0325 17.5 17.0394C16.5654 17.7728 15.3875 18.2101 14.1074 18.2101C11.0699 18.2101 8.60742 15.7477 8.60742 12.7101C8.60742 9.67252 11.0699 7.21008 14.1074 7.21008C15.3875 7.21008 16.5654 7.64738 17.5 8.38074Z" fill="#EB001B"/>
<path d="M17.5 17.0394C18.7831 16.0325 19.6074 14.4676 19.6074 12.7101C19.6074 10.9526 18.7831 9.38762 17.5 8.38074C18.4346 7.64738 19.6125 7.21008 20.8926 7.21008C23.9301 7.21008 26.3926 9.67252 26.3926 12.7101C26.3926 15.7477 23.9301 18.2101 20.8926 18.2101C19.6125 18.2101 18.4346 17.7728 17.5 17.0394Z" fill="#F79E1B"/>
<path d="M17.5 17.0394C18.7831 16.0325 19.6075 14.4676 19.6075 12.7101C19.6075 10.9526 18.7831 9.38762 17.5 8.38074C16.2169 9.38762 15.3926 10.9526 15.3926 12.7101C15.3926 14.4676 16.2169 16.0325 17.5 17.0394Z" fill="#FF5A00"/>
</svg>
