<svg width="36" height="25" viewBox="0 0 36 25" fill="none" xmlns="http://www.w3.org/2000/svg">
<rect y="0.710083" width="35.0764" height="24" rx="4.06" fill="#E3F6FF"/>
<path fill-rule="evenodd" clip-rule="evenodd" d="M1.5623 1.5321C0.611342 2.27517 0 3.43276 0 4.73313V20.6131C0 21.9135 0.611343 23.0711 1.5623 23.8141V1.5321Z" fill="#9BDDFB"/>
<g clip-path="url(#clip0_1_61986)">
<path d="M14.0768 10.8898H12.5743C12.5245 10.8897 12.4764 10.9075 12.4386 10.9398C12.4008 10.9721 12.3757 11.0168 12.368 11.066L11.7603 14.9188C11.7575 14.9367 11.7586 14.955 11.7636 14.9724C11.7685 14.9898 11.7772 15.0059 11.7889 15.0196C11.8007 15.0334 11.8153 15.0444 11.8318 15.0519C11.8482 15.0595 11.8661 15.0634 11.8842 15.0634H12.6015C12.6513 15.0634 12.6994 15.0456 12.7373 15.0133C12.7751 14.9809 12.8001 14.9361 12.8078 14.8869L12.9717 13.8478C12.9794 13.7986 13.0044 13.7539 13.0422 13.7215C13.08 13.6892 13.128 13.6714 13.1778 13.6714H13.6534C14.6432 13.6714 15.2144 13.1924 15.3635 12.2433C15.4308 11.8281 15.3664 11.5018 15.172 11.2734C14.9584 11.0225 14.5797 10.8898 14.0768 10.8898ZM14.2501 12.2969C14.168 12.8361 13.756 12.8361 13.3577 12.8361H13.131L13.29 11.8292C13.2947 11.7997 13.3097 11.7729 13.3324 11.7535C13.3551 11.7342 13.3839 11.7235 13.4137 11.7235H13.5177C13.789 11.7235 14.0449 11.7235 14.1772 11.8782C14.2561 11.9705 14.2802 12.1076 14.2501 12.2969ZM18.5681 12.2796H17.8485C17.8187 12.2796 17.7899 12.2902 17.7672 12.3096C17.7445 12.329 17.7295 12.3558 17.7249 12.3853L17.693 12.5865L17.6427 12.5136C17.4869 12.2875 17.1396 12.2119 16.7929 12.2119C15.9978 12.2119 15.3187 12.8141 15.1865 13.6588C15.1177 14.0802 15.2155 14.4831 15.4545 14.7641C15.6738 15.0225 15.9875 15.1302 16.3608 15.1302C17.0014 15.1302 17.3566 14.7182 17.3566 14.7182L17.3246 14.9181C17.3217 14.936 17.3228 14.9543 17.3277 14.9717C17.3325 14.9892 17.3411 15.0053 17.3529 15.0191C17.3646 15.0329 17.3792 15.044 17.3956 15.0516C17.4121 15.0592 17.4299 15.0631 17.448 15.0631H18.0961C18.1459 15.0632 18.1941 15.0454 18.2319 15.0131C18.2697 14.9807 18.2947 14.9359 18.3024 14.8867L18.6913 12.4241C18.6942 12.4063 18.6931 12.3881 18.6882 12.3707C18.6834 12.3533 18.6748 12.3371 18.6631 12.3234C18.6513 12.3097 18.6368 12.2986 18.6204 12.2911C18.604 12.2835 18.5861 12.2796 18.5681 12.2796ZM17.5651 13.6799C17.4957 14.091 17.1695 14.3669 16.7534 14.3669C16.5444 14.3669 16.3775 14.2999 16.2702 14.1729C16.1639 14.0468 16.1235 13.8673 16.1573 13.6674C16.2221 13.2599 16.5539 12.9749 16.9636 12.9749C17.1679 12.9749 17.334 13.0428 17.4434 13.1709C17.5531 13.3003 17.5966 13.4809 17.5651 13.6799ZM22.4 12.2796H21.677C21.6429 12.2796 21.6093 12.288 21.5792 12.304C21.5491 12.3199 21.5233 12.343 21.5041 12.3712L20.5069 13.8401L20.0842 12.4285C20.0712 12.3855 20.0447 12.3477 20.0086 12.3209C19.9726 12.2941 19.9288 12.2796 19.8838 12.2796H19.1733C19.1534 12.2795 19.1337 12.2842 19.116 12.2933C19.0982 12.3024 19.0829 12.3156 19.0712 12.3318C19.0596 12.348 19.052 12.3668 19.0491 12.3865C19.0462 12.4062 19.048 12.4264 19.0545 12.4452L19.8509 14.7824L19.1021 15.8393C19.0888 15.8581 19.0809 15.8801 19.0793 15.903C19.0777 15.926 19.0824 15.9489 19.093 15.9693C19.1035 15.9897 19.1195 16.0069 19.1391 16.0188C19.1588 16.0308 19.1813 16.0371 19.2043 16.0371H19.9264C19.9602 16.0371 19.9934 16.029 20.0233 16.0134C20.0532 15.9978 20.0788 15.9751 20.098 15.9474L22.5028 12.4762C22.5159 12.4574 22.5235 12.4354 22.5249 12.4126C22.5264 12.3898 22.5215 12.367 22.5109 12.3468C22.5003 12.3265 22.4844 12.3095 22.4649 12.2977C22.4453 12.2859 22.4229 12.2796 22.4 12.2796Z" fill="#253B80"/>
<path d="M24.7939 10.8899H23.2911C23.2414 10.8899 23.1934 10.9076 23.1556 10.9399C23.1178 10.9722 23.0928 11.017 23.0851 11.0661L22.4774 14.9189C22.4745 14.9367 22.4756 14.955 22.4805 14.9724C22.4854 14.9898 22.494 15.0059 22.5058 15.0196C22.5175 15.0334 22.5321 15.0444 22.5485 15.052C22.5649 15.0595 22.5828 15.0635 22.6008 15.0635H23.372C23.4068 15.0634 23.4404 15.0509 23.4668 15.0283C23.4932 15.0057 23.5107 14.9744 23.5161 14.94L23.6886 13.8479C23.6963 13.7987 23.7212 13.754 23.759 13.7216C23.7968 13.6893 23.8449 13.6715 23.8946 13.6715H24.3701C25.36 13.6715 25.931 13.1925 26.0804 12.2434C26.1479 11.8282 26.083 11.5019 25.8886 11.2735C25.6753 11.0226 25.2967 10.8899 24.7939 10.8899ZM24.9672 12.297C24.8853 12.8362 24.4733 12.8362 24.0748 12.8362H23.8483L24.0076 11.8293C24.0121 11.7998 24.0271 11.773 24.0497 11.7536C24.0724 11.7342 24.1012 11.7236 24.131 11.7236H24.2349C24.5061 11.7236 24.7622 11.7236 24.8945 11.8783C24.9734 11.9706 24.9973 12.1077 24.9672 12.297ZM29.2849 12.2797H28.5658C28.536 12.2796 28.5072 12.2902 28.4845 12.3096C28.4618 12.329 28.4469 12.3559 28.4424 12.3853L28.4105 12.5866L28.36 12.5137C28.2042 12.2876 27.8571 12.212 27.5104 12.212C26.7153 12.212 26.0365 12.8142 25.9042 13.6589C25.8357 14.0803 25.933 14.4832 26.172 14.7642C26.3917 15.0226 26.705 15.1302 27.0783 15.1302C27.7189 15.1302 28.0742 14.7183 28.0742 14.7183L28.0421 14.9182C28.0392 14.9362 28.0403 14.9545 28.0452 14.9719C28.0501 14.9894 28.0588 15.0056 28.0705 15.0194C28.0823 15.0332 28.097 15.0442 28.1134 15.0518C28.1299 15.0594 28.1479 15.0633 28.166 15.0632H28.8139C28.8636 15.0632 28.9117 15.0454 28.9495 15.0131C28.9873 14.9807 29.0123 14.936 29.02 14.8868L29.409 12.4242C29.4118 12.4063 29.4107 12.3881 29.4057 12.3707C29.4007 12.3533 29.392 12.3371 29.3802 12.3234C29.3684 12.3097 29.3538 12.2986 29.3374 12.2911C29.3209 12.2836 29.303 12.2797 29.2849 12.2797ZM28.282 13.68C28.213 14.0911 27.8863 14.367 27.4702 14.367C27.2617 14.367 27.0943 14.3 26.9871 14.173C26.8808 14.0469 26.8408 13.8674 26.8742 13.6675C26.9394 13.26 27.2707 12.975 27.6805 12.975C27.8848 12.975 28.0509 13.0429 28.1603 13.171C28.2704 13.3004 28.3139 13.481 28.282 13.68ZM30.1332 10.9955L29.5165 14.9189C29.5136 14.9367 29.5147 14.955 29.5196 14.9724C29.5245 14.9898 29.5332 15.0059 29.5449 15.0196C29.5566 15.0334 29.5712 15.0444 29.5876 15.052C29.604 15.0595 29.6219 15.0635 29.6399 15.0635H30.2599C30.363 15.0635 30.4504 14.9888 30.4662 14.887L31.0744 11.0344C31.0772 11.0166 31.0761 10.9983 31.0712 10.9809C31.0663 10.9635 31.0577 10.9474 31.0459 10.9336C31.0342 10.9199 31.0196 10.9088 31.0032 10.9012C30.9868 10.8936 30.969 10.8897 30.9509 10.8896H30.2566C30.2268 10.8898 30.198 10.9005 30.1754 10.9199C30.1528 10.9393 30.1378 10.9661 30.1332 10.9955Z" fill="#179BD7"/>
<path d="M5.52069 15.8122L5.6356 15.0823L5.37965 15.0764H4.15747L5.00682 9.69096C5.00935 9.6745 5.01771 9.65951 5.03037 9.6487C5.04303 9.63789 5.05916 9.63199 5.07581 9.63208H7.13657C7.82071 9.63208 8.29284 9.77445 8.53934 10.0554C8.6549 10.1873 8.7285 10.325 8.76409 10.4766C8.80144 10.6357 8.8021 10.8257 8.76563 11.0575L8.76299 11.0744V11.2229L8.87855 11.2884C8.96677 11.3331 9.04607 11.3935 9.11253 11.4668C9.21139 11.5795 9.27532 11.7227 9.30235 11.8925C9.33025 12.0672 9.32102 12.275 9.27532 12.5103C9.2226 12.781 9.13735 13.0167 9.02223 13.2096C8.92066 13.3824 8.78409 13.5321 8.62128 13.649C8.46837 13.7576 8.28668 13.8399 8.08127 13.8927C7.88222 13.9445 7.65527 13.9707 7.40636 13.9707H7.24598C7.1313 13.9707 7.01991 14.012 6.93247 14.086C6.84515 14.1608 6.78723 14.2642 6.76902 14.3778L6.75693 14.4435L6.55393 15.7298L6.5447 15.777C6.54229 15.792 6.53811 15.7994 6.53196 15.8045C6.526 15.8094 6.51857 15.8121 6.51087 15.8122H5.52069Z" fill="#253B80"/>
<path d="M8.98796 11.0916C8.98181 11.1309 8.97478 11.1711 8.96687 11.2124C8.6951 12.6077 7.76534 13.0897 6.57788 13.0897H5.97327C5.82805 13.0897 5.70568 13.1952 5.68305 13.3384L5.37349 15.3016L5.28584 15.8581C5.28234 15.8802 5.28368 15.9028 5.28974 15.9243C5.29581 15.9458 5.30647 15.9657 5.32098 15.9827C5.33549 15.9997 5.35351 16.0134 5.3738 16.0227C5.3941 16.0321 5.41618 16.0369 5.43853 16.0369H6.51087C6.63785 16.0369 6.74573 15.9447 6.76572 15.8194L6.77626 15.765L6.97816 14.4837L6.99113 14.4134C7.0109 14.2877 7.11899 14.1954 7.24598 14.1954H7.40636C8.4453 14.1954 9.25863 13.7736 9.49634 12.553C9.59564 12.0431 9.54423 11.6173 9.28147 11.3178C9.19819 11.2252 9.09873 11.1485 8.98796 11.0916Z" fill="#179BD7"/>
<path d="M8.70348 10.9782C8.61671 10.9531 8.52843 10.9335 8.43919 10.9196C8.26284 10.8925 8.08461 10.8795 7.9062 10.8807H6.29098C6.22951 10.8806 6.17005 10.9026 6.12335 10.9426C6.07665 10.9825 6.0458 11.0379 6.03635 11.0986L5.69275 13.275L5.68286 13.3384C5.69357 13.2692 5.72871 13.206 5.78195 13.1604C5.83518 13.1148 5.90298 13.0897 5.97308 13.0898H6.57769C7.76515 13.0898 8.69491 12.6075 8.96668 11.2124C8.97481 11.1711 8.98162 11.1309 8.98777 11.0916C8.91606 11.054 8.84132 11.0225 8.76434 10.9974C8.74416 10.9907 8.72387 10.9843 8.70348 10.9782Z" fill="#222D65"/>
<path d="M6.03647 11.0986C6.04583 11.0378 6.07667 10.9824 6.1234 10.9425C6.17012 10.9025 6.22962 10.8806 6.2911 10.8808H7.90631C8.09767 10.8808 8.27628 10.8934 8.4393 10.9197C8.54961 10.9371 8.6584 10.963 8.76467 10.9973C8.84486 11.0239 8.91934 11.0553 8.9881 11.0915C9.06895 10.5759 8.98745 10.2248 8.70865 9.90692C8.40129 9.55694 7.84656 9.4071 7.13671 9.4071H5.07595C4.93095 9.4071 4.80726 9.51256 4.78485 9.65602L3.92649 15.0968C3.9225 15.1221 3.92402 15.1479 3.93095 15.1725C3.93789 15.1972 3.95007 15.22 3.96667 15.2394C3.98327 15.2589 4.00388 15.2745 4.0271 15.2852C4.05031 15.296 4.07558 15.3016 4.10115 15.3016H5.37342L5.69286 13.2749L6.03647 11.0986Z" fill="#253B80"/>
</g>
<defs>
<clipPath id="clip0_1_61986">
<rect width="27.1515" height="7" fill="white" transform="translate(3.92432 9.21008)"/>
</clipPath>
</defs>
</svg>
