<svg width="46" height="25" viewBox="0 0 46 25" fill="none" xmlns="http://www.w3.org/2000/svg">
<rect y="0.710083" width="45.0764" height="24" rx="4.06" fill="#FFF9E3"/>
<path fill-rule="evenodd" clip-rule="evenodd" d="M1.5623 1.5321C0.611342 2.27517 0 3.43276 0 4.73313V20.6131C0 21.9135 0.611343 23.0711 1.5623 23.8141V1.5321Z" fill="#FAC913"/>
<path fill-rule="evenodd" clip-rule="evenodd" d="M11.6629 13.9519C11.1047 14.4659 10.4928 14.9247 9.86231 15.3404C8.55177 16.2046 7.09 16.9352 5.63784 17.5141C5.15742 17.7057 4.58851 17.8164 4.10908 17.5604C3.79398 17.3922 3.58652 17.0998 3.47662 16.759C3.39521 16.5065 3.36012 16.2096 3.3142 15.9463C2.94275 13.8164 3.10295 11.3322 3.52112 9.20751C3.62483 8.68043 3.86949 7.96911 4.41497 7.77995C4.67687 7.68914 4.97359 7.69443 5.24206 7.75249C5.3303 7.77158 5.40751 7.79866 5.49151 7.83075C7.27823 8.51297 8.87717 9.36489 10.38 10.574C10.8056 10.9163 11.2719 11.272 11.6629 11.6541C11.9179 11.9032 12.1539 12.1857 12.217 12.5527C12.2342 12.6529 12.2378 12.7541 12.2302 12.8555C12.2001 13.26 11.9893 13.7078 11.6629 13.9519H11.6629Z" fill="#FEFEFE"/>
<path fill-rule="evenodd" clip-rule="evenodd" d="M3.82362 16.6406C3.95352 17.0434 4.34318 17.626 5.50381 17.1633C7.1811 16.4946 9.68755 15.2704 11.4319 13.6577C11.4319 13.6577 11.8222 13.3795 11.8633 12.8268C11.9044 12.274 11.4847 11.9417 10.1525 10.8699C8.84142 9.81515 7.37264 8.95084 5.36238 8.18329C5.2913 8.15616 5.24035 8.13684 5.16518 8.12058C5.02681 8.09065 4.76642 8.05475 4.53122 8.1363C4.19097 8.2543 3.98006 8.77054 3.87944 9.28186C3.78359 9.76889 3.16156 12.9412 3.67405 15.8799C3.71013 16.0869 3.76182 16.449 3.82362 16.6406Z" fill="#FAC913"/>
<path fill-rule="evenodd" clip-rule="evenodd" d="M4.04882 8.70479C3.99037 8.91047 3.94116 9.17685 3.91412 9.52149L3.91495 9.51209C4.25552 9.39341 4.74008 9.34738 5.42719 9.43428C7.62214 9.71191 9.87584 10.9814 11.0975 11.7439L11.4282 11.9456C11.3415 11.8597 11.2403 11.7675 11.1235 11.6662L11.1234 11.6662L11.0999 11.6458L11.088 11.6356C11.0635 11.6146 11.039 11.5936 11.0144 11.5728L11.0017 11.562L10.9631 11.5295L10.9501 11.5186L10.9236 11.4964L10.9102 11.4852L10.8693 11.4513L10.8275 11.4167L10.7846 11.3814L10.7555 11.3575L10.5575 11.1964L10.5553 11.1945L10.5063 11.1549L10.5036 11.1527L10.4563 11.1145L10.4483 11.1081L10.4394 11.1009L10.4052 11.0733L10.3918 11.0625L10.3355 11.0171L10.334 11.0159L10.2819 10.974L10.2748 10.9684L10.1526 10.87C8.84155 9.81525 7.37277 8.95095 5.3625 8.1834C5.29143 8.15627 5.24048 8.13695 5.16531 8.12069C5.02694 8.09076 4.76655 8.05486 4.53134 8.13641C4.52666 8.13803 4.52202 8.13976 4.51742 8.14153L4.51404 8.14283C4.50953 8.14461 4.50503 8.14643 4.50056 8.14834L4.4986 8.14921C4.49415 8.15111 4.48972 8.1531 4.48533 8.15516L4.48402 8.15576C4.47956 8.15787 4.47514 8.16008 4.47072 8.16232L4.46759 8.16393C4.46331 8.16612 4.45906 8.16839 4.45485 8.17072L4.45208 8.17229C4.44828 8.17442 4.4445 8.17659 4.44073 8.17882L4.4384 8.18019C4.43423 8.18271 4.43009 8.18529 4.42598 8.18792L4.4228 8.18996C4.41864 8.19263 4.41452 8.19536 4.41042 8.19817L4.40806 8.19981C4.40439 8.20234 4.40074 8.20493 4.3971 8.20757L4.39467 8.20931C4.39066 8.21226 4.38668 8.21527 4.38272 8.21831L4.37961 8.22075C4.37559 8.22388 4.37162 8.22703 4.36767 8.23026L4.3673 8.23057L4.36685 8.23096C4.36279 8.23429 4.35877 8.23768 4.35477 8.24115L4.35272 8.24292C4.34877 8.24635 4.34483 8.24984 4.34095 8.25339L4.33839 8.25573C4.33472 8.2591 4.33108 8.26249 4.32746 8.26595L4.32647 8.26689L4.32617 8.26718L4.32606 8.26728C4.32224 8.27094 4.31844 8.2747 4.31466 8.27848L4.31196 8.28121C4.30817 8.28504 4.30439 8.28892 4.30062 8.29289L4.29909 8.29451C4.29563 8.29819 4.29216 8.30192 4.28872 8.3057L4.28668 8.30791C4.28306 8.31191 4.27949 8.31599 4.2759 8.32007L4.2733 8.32308C4.26966 8.3273 4.26602 8.33155 4.26244 8.33585L4.26089 8.33772C4.25766 8.34165 4.25441 8.3456 4.25122 8.3496L4.24895 8.35241C4.24553 8.35671 4.24214 8.36106 4.23874 8.36544L4.23612 8.36888C4.23276 8.37327 4.22944 8.37768 4.22614 8.38212L4.2255 8.38299L4.22459 8.38426C4.22157 8.38837 4.21856 8.39252 4.21559 8.39669L4.21269 8.40075C4.20956 8.4052 4.20643 8.40968 4.20333 8.41418L4.20031 8.41862C4.19708 8.42337 4.19387 8.42814 4.19069 8.43294L4.19063 8.43304L4.04882 8.70479ZM4.23772 8.49252C4.23371 8.49565 4.22971 8.4988 4.22578 8.50203L4.23772 8.49252ZM4.10623 8.63112C4.10289 8.6355 4.09956 8.6399 4.09625 8.64435L4.10623 8.63112ZM4.08042 8.66762C4.07719 8.67237 4.07398 8.67714 4.0708 8.68194L4.08042 8.66762ZM4.07007 8.68363L4.06839 8.68627C4.06509 8.69147 4.0618 8.69671 4.05855 8.702L4.05702 8.70447C4.05383 8.70971 4.05066 8.71496 4.04752 8.72026L4.04709 8.72095L4.04664 8.72172C4.04349 8.72704 4.04037 8.73241 4.03726 8.7378L4.03573 8.74046C4.03253 8.74606 4.02935 8.75168 4.02621 8.75733L4.02474 8.76001L4.01702 8.77413L4.01476 8.77833C4.01192 8.78365 4.00908 8.78903 4.00628 8.7944L4.00413 8.79854L3.99599 8.81445L3.99518 8.81605L3.98645 8.83368L3.98476 8.83713C3.98205 8.8427 3.97936 8.84829 3.9767 8.85389L3.97463 8.85829C3.97189 8.86413 3.96914 8.86997 3.96645 8.87586L3.96614 8.87652L3.96601 8.87681C3.96335 8.88263 3.96072 8.8885 3.9581 8.89436L3.95593 8.89921L3.94822 8.91684L3.94665 8.9205L4.07007 8.68363ZM4.09803 8.62142C4.09529 8.62725 4.09255 8.63309 4.08984 8.63898L4.09803 8.62142Z" fill="#FAC913"/>
<path fill-rule="evenodd" clip-rule="evenodd" d="M3.91495 9.51209C4.25552 9.39341 4.74008 9.34738 5.42719 9.43428C7.62214 9.71191 9.87584 10.9814 11.0975 11.7439C10.0752 14.7765 5.59016 16.9469 5.59016 16.9469C5.05342 16.3962 4.53588 15.8849 4.03749 12.0893C3.88591 10.9348 3.86742 10.1065 3.91495 9.51209Z" fill="#FAC913"/>
<path d="M5.36417 11.2155C5.45349 10.9327 5.54666 10.6511 5.63713 10.3691C6.35827 10.3691 7.07903 10.3687 7.80016 10.3691C8.16475 10.3687 8.54352 10.4654 8.82839 10.7089C9.04882 10.8879 9.18224 11.1597 9.23361 11.4393C9.34556 12.0399 9.17801 12.698 8.76282 13.142C8.38826 13.5562 7.84578 13.7737 7.3056 13.8304C6.844 13.8736 6.38012 13.8386 5.91853 13.8189C5.78551 14.3704 5.67778 14.9285 5.55279 15.4823C5.20429 15.4666 4.8558 15.4454 4.50732 15.4391C4.67679 14.5675 4.87383 13.7013 5.04444 12.8297C5.62067 12.8227 6.19689 12.8285 6.77309 12.827C6.77501 13.0087 6.77425 13.1908 6.77425 13.3729C7.25847 12.9517 7.72962 12.5155 8.21038 12.0899C7.85346 11.6293 7.49002 11.1734 7.1373 10.7093C7.08899 10.8753 7.04415 11.0425 7.00466 11.2108C6.45796 11.2187 5.91124 11.21 5.36417 11.2155Z" fill="black"/>
<path d="M15.3531 10.0669C14.867 10.0622 14.379 10.0602 13.8959 10.1235C13.7932 10.1428 13.662 10.144 13.5988 10.2439C13.5079 10.4008 13.4983 10.5912 13.4907 10.7698C13.7119 10.8264 13.9392 10.7796 14.1639 10.7934C14.3529 10.7922 14.5465 10.8225 14.7328 10.7804C14.8628 10.7112 14.8198 10.5259 14.8965 10.4142C15.1634 10.7478 15.4329 11.0797 15.6955 11.4168C15.5153 11.6139 15.3136 11.7885 15.1135 11.9635C14.9345 12.1091 14.7639 12.2684 14.563 12.382C14.5668 12.2648 14.5844 12.1496 14.6078 12.0351C14.5542 12.0076 14.4989 11.9761 14.4368 11.9828C14.0458 11.9832 13.6547 11.9785 13.2641 11.9863C13.2127 12.1272 13.1893 12.2758 13.1602 12.4225C13.0574 12.928 12.957 13.4334 12.8569 13.9392C12.855 14.0084 12.8086 14.1064 12.8826 14.1512C12.9608 14.187 13.049 14.1689 13.1318 14.1697C13.2691 14.1595 13.4082 14.189 13.5447 14.1642C13.6605 14.1378 13.7023 14.012 13.7211 13.9062C13.7893 13.5439 13.8794 13.1868 13.9676 12.8292C14.328 12.8807 14.6933 12.8678 15.0529 12.8178C15.4279 12.7809 15.8036 12.6318 16.067 12.3482C16.3856 12.0245 16.4711 11.5485 16.4921 11.1072C16.5048 10.8461 16.4956 10.533 16.2744 10.3587C16.0114 10.1589 15.6763 10.0747 15.3531 10.0669Z" fill="black"/>
<path fill-rule="evenodd" clip-rule="evenodd" d="M19.7275 11.3358C20.2071 11.1552 20.7308 11.2284 21.2211 11.3208C21.2455 11.3274 21.271 11.3322 21.2968 11.337C21.3676 11.3503 21.4401 11.3639 21.4929 11.4164C21.536 11.4765 21.5242 11.5516 21.5132 11.6211C21.5115 11.6321 21.5098 11.6429 21.5083 11.6536C21.4463 12.0011 21.387 12.3492 21.3277 12.6972C21.2261 13.294 21.1244 13.8907 21.0091 14.4848C20.9524 14.7636 20.8251 15.0567 20.5702 15.1983C20.3061 15.3481 19.9992 15.3509 19.7031 15.3536C19.6596 15.3539 19.6163 15.3543 19.5734 15.3552C19.2659 15.3595 18.9316 15.2903 18.7077 15.0598C18.6604 14.9469 18.7099 14.8322 18.7563 14.7248C18.7678 14.6983 18.779 14.6723 18.7886 14.6468C18.8603 14.6508 18.9327 14.6559 19.0025 14.6759C19.3537 14.7778 19.729 14.7975 20.089 14.7397C20.2819 14.6917 20.3194 14.4647 20.3355 14.2932C19.9951 14.3412 19.6297 14.364 19.3119 14.2039C19.0516 14.0781 18.8702 13.8043 18.8484 13.5105C18.8112 12.9827 18.914 12.4509 19.1014 11.9604C19.2111 11.6725 19.4426 11.4384 19.7275 11.3358ZM19.7658 12.1287C19.8747 11.9623 20.048 11.8392 20.2416 11.8022C20.4064 11.7708 20.5886 11.7869 20.7354 11.8742C20.7612 11.924 20.7528 11.9793 20.7447 12.0328C20.7427 12.0462 20.7407 12.0594 20.7393 12.0725C20.6963 12.3181 20.6556 12.564 20.6149 12.8098C20.5741 13.0558 20.5334 13.3018 20.4904 13.5475C20.4877 13.5573 20.4855 13.568 20.4831 13.579C20.4728 13.6273 20.4614 13.681 20.408 13.6922C20.2129 13.7441 20.0039 13.7701 19.8054 13.7252C19.693 13.6993 19.5692 13.6312 19.5504 13.503C19.5 13.2079 19.5567 12.9081 19.6117 12.6175L19.6137 12.6074C19.6191 12.5829 19.6244 12.5582 19.6296 12.5334C19.6593 12.3934 19.6896 12.2507 19.7658 12.1287Z" fill="black"/>
<path fill-rule="evenodd" clip-rule="evenodd" d="M17.0534 11.3086C17.4284 11.2123 17.8393 11.1749 18.207 11.3232C18.396 11.3963 18.5471 11.5655 18.5904 11.7696C18.655 12.0315 18.6036 12.2937 18.5525 12.554C18.5341 12.6475 18.5158 12.7407 18.503 12.8336C18.4683 13.0779 18.4266 13.3212 18.3848 13.5646C18.3642 13.6844 18.3437 13.8042 18.324 13.9243C18.3048 14.0493 18.25 14.1902 18.1165 14.2228C17.7481 14.3211 17.3617 14.3498 16.9821 14.3243C16.7161 14.2979 16.4128 14.2389 16.2472 14.0002C16.0816 13.7646 16.1222 13.4523 16.1843 13.1868C16.2403 12.9288 16.4124 12.69 16.6608 12.6003C16.9009 12.5115 17.1571 12.5004 17.4112 12.4893C17.4801 12.4863 17.5488 12.4833 17.617 12.4788C17.6388 12.4759 17.6619 12.4751 17.6852 12.4742C17.7477 12.472 17.8123 12.4697 17.8612 12.4273C17.9134 12.2939 17.9314 12.1378 17.89 11.9989C17.8294 11.844 17.6419 11.8243 17.5005 11.8321C17.2033 11.831 16.9192 11.923 16.6401 12.0162C16.6377 12.0043 16.6352 11.9922 16.6326 11.98C16.6018 11.8335 16.5674 11.67 16.6516 11.5368C16.7367 11.3964 16.9011 11.3508 17.0472 11.3103L17.0534 11.3086ZM16.8573 13.2716C16.8597 13.2621 16.8621 13.2527 16.8644 13.2434C16.8951 13.1376 16.9714 13.0346 17.0814 13.0094C17.2984 12.9614 17.5227 12.9697 17.7431 12.9814C17.7663 13.1172 17.7404 13.2508 17.7145 13.3845C17.6993 13.4627 17.6841 13.541 17.6787 13.6198C17.6726 13.7516 17.5246 13.7748 17.4245 13.7897C17.224 13.8247 16.984 13.7929 16.8498 13.6206C16.7967 13.5113 16.8286 13.3853 16.8573 13.2716Z" fill="black"/>
<path fill-rule="evenodd" clip-rule="evenodd" d="M22.8819 11.2362C23.1791 11.1859 23.4992 11.2158 23.7656 11.3676C24.0294 11.5238 24.2012 11.8203 24.2149 12.1314C24.2318 12.4882 24.1624 12.843 24.0773 13.1867C24.0018 13.4751 23.8841 13.7638 23.6656 13.9695C23.2895 14.3431 22.7014 14.4218 22.2168 14.2562C21.9484 14.1662 21.7598 13.914 21.6923 13.6399C21.5654 13.1631 21.6716 12.6609 21.8154 12.2011C21.9588 11.7074 22.3905 11.3279 22.8819 11.2362ZM22.4886 12.2951C22.5492 12.1043 22.6987 11.9419 22.8885 11.8852C23.0437 11.8396 23.2255 11.8325 23.3635 11.9324C23.4881 12.0154 23.523 12.1806 23.5157 12.3238C23.503 12.6876 23.4497 13.0589 23.2906 13.3881C23.2239 13.5321 23.1016 13.6576 22.9429 13.6839C22.7803 13.7134 22.5902 13.728 22.4529 13.6163C22.3494 13.5345 22.3291 13.3897 22.3249 13.2646C22.3268 12.9354 22.3874 12.607 22.4886 12.2951Z" fill="black"/>
<path d="M29.2337 10.1301C28.9024 10.0353 28.5309 10.033 28.2189 10.195C27.9861 10.3229 27.8822 10.5982 27.8431 10.8523C27.819 10.9628 27.8167 11.1068 27.709 11.1697C27.5575 11.2201 27.3612 11.1068 27.237 11.2393C27.1757 11.3542 27.1343 11.5221 27.2244 11.6323C27.3352 11.7613 27.5188 11.7133 27.6622 11.7684C27.6691 11.9198 27.6273 12.0681 27.6051 12.2168C27.4931 12.8583 27.3804 13.4998 27.2792 14.1429C27.2516 14.2857 27.2205 14.4701 27.0664 14.5244C26.9207 14.5704 26.7643 14.5401 26.6156 14.5704C26.5688 14.7018 26.5216 14.8418 26.5489 14.983C26.6175 15.0873 26.7555 15.0759 26.8632 15.0892C27.1266 15.0987 27.4203 15.0876 27.6373 14.9138C27.8464 14.7473 27.9068 14.4676 27.9613 14.2153L27.9639 14.2034C28.095 13.4557 28.2181 12.7068 28.3488 11.9591C28.3584 11.8777 28.3952 11.8053 28.4385 11.7384C28.6099 11.7192 28.8047 11.7672 28.958 11.6684C29.0661 11.5434 29.0569 11.3542 29.0289 11.1988C28.8556 11.1595 28.6774 11.1791 28.5026 11.1571C28.5263 11.0025 28.4995 10.8078 28.6256 10.6938C28.7866 10.5942 28.9929 10.658 29.1589 10.575C29.2574 10.4538 29.2417 10.278 29.2337 10.1301Z" fill="black"/>
<path d="M36.3016 10.1097C36.1713 10.1695 36.1698 10.3409 36.1399 10.4645C36.1257 10.5703 36.0885 10.7453 36.2254 10.7807C36.4159 10.8094 36.6168 10.8145 36.8047 10.765C36.8598 10.5494 36.9477 10.3201 36.8694 10.0983C36.68 10.1002 36.4895 10.0892 36.3016 10.1097Z" fill="black"/>
<path d="M26.9867 10.2324C26.5155 10.1758 26.0347 10.1494 25.5651 10.2348C25.3596 10.2749 25.1756 10.3972 25.0395 10.5573C24.88 10.7532 24.8072 11.0045 24.7608 11.2507C24.6622 11.79 24.5698 12.3304 24.4778 12.8712C24.4445 13.0781 24.3885 13.287 24.4234 13.4978C24.4533 13.7464 24.5614 14.0217 24.8048 14.12C25.3132 14.3324 25.8756 14.2396 26.4039 14.1822C26.5895 14.157 26.6317 13.93 26.6113 13.7719C26.5968 13.7133 26.6102 13.6119 26.5289 13.6091C26.1677 13.5945 25.8059 13.6087 25.4447 13.6004C25.3301 13.5965 25.1813 13.5536 25.1694 13.414C25.1434 13.1501 25.2216 12.8885 25.2515 12.6273C25.2561 12.5243 25.3473 12.4507 25.4455 12.461C25.8181 12.4562 26.1908 12.4625 26.563 12.4602C26.655 12.4649 26.762 12.426 26.7934 12.3288C26.8302 12.2104 26.854 12.0865 26.8544 11.9622C26.8636 11.8651 26.7467 11.8482 26.6769 11.8517C26.2494 11.8505 25.8219 11.8517 25.3945 11.8521C25.4367 11.5799 25.4489 11.2967 25.5544 11.0407C25.6122 10.8889 25.7825 10.848 25.9243 10.8405C26.2383 10.8291 26.5523 10.8421 26.8663 10.8358C26.9587 10.8322 27.0745 10.8212 27.1209 10.7241C27.1868 10.5852 27.1883 10.424 27.1611 10.2749C27.1036 10.258 27.0457 10.2403 26.9867 10.2324Z" fill="black"/>
<path d="M35.2841 10.5699C35.0549 10.5597 34.8091 10.5734 34.6071 10.695H34.6071C34.5108 10.8256 34.5821 11.0226 34.4706 11.1457C34.3019 11.2122 34.0987 11.1225 33.9411 11.2291C33.8484 11.3318 33.8392 11.5072 33.9036 11.6271C34.0289 11.7648 34.2302 11.7251 34.3931 11.7699C34.323 12.3737 34.188 12.9672 34.1133 13.5698C34.0861 13.7621 34.119 13.9891 34.282 14.111C34.499 14.2758 34.7827 14.2251 35.0349 14.2266C35.2933 14.2168 35.421 13.8801 35.2856 13.6701C35.1285 13.6815 34.9671 13.6968 34.8149 13.6433C34.816 13.492 34.8411 13.3429 34.8662 13.1942L34.8682 13.1823C34.9433 12.7458 35.0077 12.3068 35.0944 11.8726C35.1404 11.67 35.3865 11.7585 35.531 11.7251C35.6714 11.729 35.7116 11.5701 35.7392 11.4592C35.7549 11.3774 35.771 11.2578 35.6809 11.2153C35.5372 11.1595 35.3796 11.174 35.2301 11.1524C35.2209 10.9557 35.2907 10.7665 35.2841 10.5699Z" fill="black"/>
<path d="M33.0406 11.1437C32.635 11.1272 32.2022 11.2873 31.9641 11.6382C31.7712 11.9257 31.6758 12.269 31.6103 12.6081C31.5627 12.9232 31.5321 13.2492 31.5899 13.5651C31.6827 13.9623 32.0741 14.242 32.4652 14.2361C32.6316 14.2196 32.7972 14.1948 32.9636 14.1794C33.0928 14.1637 33.2373 14.131 33.3205 14.019C33.4148 13.8644 33.3937 13.674 33.3834 13.5009C33.0747 13.5615 32.755 13.6933 32.4414 13.5895C32.3164 13.5533 32.2509 13.4211 32.2535 13.2948C32.2413 12.8909 32.3065 12.4822 32.4575 12.1086C32.5242 11.9363 32.6764 11.8065 32.8512 11.7632C33.0621 11.6905 33.2519 11.8647 33.4635 11.8541C33.5528 11.8541 33.7165 11.8981 33.7273 11.7621C33.7476 11.6201 33.8576 11.4167 33.7043 11.3172C33.5037 11.1988 33.2691 11.154 33.0406 11.1437Z" fill="black"/>
<path d="M36.6367 11.1858C36.4427 11.15 36.2365 11.1524 36.0482 11.2149C35.9907 11.4037 35.9654 11.6004 35.9328 11.7947C35.8182 12.5027 35.7017 13.2107 35.584 13.9183C35.5736 14.0013 35.5556 14.0941 35.6008 14.1708C35.7595 14.2306 35.9367 14.2144 36.1015 14.1971C36.261 14.1728 36.2648 13.9796 36.2855 13.8522C36.4189 13.0388 36.5723 12.2285 36.7015 11.4143C36.7023 11.338 36.7452 11.2023 36.6367 11.1858Z" fill="black"/>
<path d="M37.1792 11.1729C37.1186 11.1795 37.0481 11.176 37.0029 11.224C36.9783 11.3097 36.9879 11.4006 36.9933 11.4887C37.0638 12.2498 37.1359 13.0105 37.2195 13.7704C37.2364 13.9443 37.3111 14.1409 37.4871 14.2007C37.8287 14.3199 38.2906 14.2149 38.4474 13.8506C38.8136 13.0408 39.1609 12.2219 39.5228 11.4104C39.5504 11.3412 39.6049 11.215 39.501 11.1882C39.2951 11.1571 39.0781 11.1563 38.8753 11.2098C38.6253 11.7896 38.4072 12.3831 38.1752 12.9708C38.0736 13.2119 38.0115 13.4833 37.8214 13.6721C37.7551 13.3963 37.7543 13.1112 37.7397 12.8292C37.7167 12.341 37.7003 11.8529 37.6719 11.3656C37.6565 11.3086 37.6715 11.2082 37.5979 11.1953C37.4614 11.1583 37.3184 11.1693 37.1792 11.1729Z" fill="black"/>
<path fill-rule="evenodd" clip-rule="evenodd" d="M40.5368 11.1669C40.8114 11.1292 41.1035 11.1288 41.3642 11.237C41.6571 11.3825 41.8772 11.6975 41.8871 12.0358C41.9224 12.4512 41.8166 12.8602 41.7046 13.2551C41.6283 13.5234 41.4857 13.7783 41.2687 13.9513C40.903 14.2483 40.3946 14.3175 39.9522 14.1893C39.6938 14.1252 39.5036 13.9018 39.3886 13.6662C39.2411 13.3426 39.305 12.9819 39.3651 12.6427C39.3707 12.6107 39.3763 12.579 39.3817 12.5475C39.45 12.1448 39.5991 11.7302 39.9077 11.4564C40.0845 11.2991 40.3065 11.2027 40.5368 11.1669ZM40.1677 12.1943C40.2394 11.9957 40.4027 11.8266 40.6085 11.7825C40.7531 11.7522 40.9129 11.7691 41.0387 11.8533C41.1342 11.9217 41.1782 12.0417 41.1832 12.1578C41.2059 12.4097 41.1446 12.6533 41.0837 12.8955C41.0652 12.969 41.0467 13.0424 41.0307 13.1159C40.9923 13.2846 40.9011 13.4498 40.7466 13.5316C40.5453 13.6359 40.2777 13.6441 40.0975 13.4911C39.999 13.4046 39.981 13.2626 39.9882 13.1379C40.0089 12.8177 40.0592 12.4964 40.1677 12.1943Z" fill="black"/>
<path fill-rule="evenodd" clip-rule="evenodd" d="M30.0403 11.1681C30.3221 11.1351 30.6357 11.1024 30.8872 11.2676C31.2153 11.4753 31.3491 11.897 31.3422 12.2754C31.3396 12.3311 31.3388 12.3872 31.3381 12.4435C31.3361 12.6032 31.334 12.7636 31.2866 12.9169C31.0888 12.9579 30.8874 12.9542 30.6862 12.9505C30.5884 12.9487 30.4907 12.947 30.3934 12.9503C30.2781 12.9528 30.1627 12.9513 30.0475 12.9498C29.8765 12.9475 29.7056 12.9452 29.535 12.9562C29.453 13.1615 29.4886 13.4353 29.6826 13.56C29.8122 13.6249 29.9597 13.6238 30.1022 13.6228C30.1228 13.6226 30.1434 13.6225 30.1637 13.6225C30.3669 13.6206 30.5633 13.5721 30.7597 13.5237C30.8535 13.5005 30.9472 13.4773 31.0417 13.4593C31.0415 13.4924 31.0429 13.5275 31.0443 13.5636C31.0509 13.7325 31.0583 13.922 30.9083 14.0206C30.7285 14.1229 30.5272 14.1771 30.329 14.2304C30.3117 14.235 30.2945 14.2397 30.2772 14.2444C29.9575 14.3277 29.6056 14.2978 29.3165 14.1283C29.0619 13.9922 28.8614 13.7374 28.83 13.4388C28.7679 12.8587 28.8825 12.2592 29.1501 11.7447C29.3253 11.4096 29.6811 11.2134 30.0403 11.1681ZM29.6282 12.426C29.6554 12.2293 29.7179 12.0252 29.8708 11.893C30.0729 11.7034 30.4398 11.7042 30.6084 11.9394C30.7123 12.0743 30.7311 12.2564 30.6771 12.4169C30.3984 12.4389 30.1184 12.4341 29.839 12.4292C29.7687 12.428 29.6984 12.4268 29.6282 12.426Z" fill="black"/>
</svg>
