<svg width="36" height="25" viewBox="0 0 36 25" fill="none" xmlns="http://www.w3.org/2000/svg">
<rect y="0.710083" width="35.0764" height="24" rx="4.06" fill="#EAF5FE"/>
<path fill-rule="evenodd" clip-rule="evenodd" d="M1.5623 1.5321C0.611342 2.27517 0 3.43276 0 4.73313V20.6131C0 21.9135 0.611343 23.0711 1.5623 23.8141V1.5321Z" fill="#9EC8F0"/>
<path d="M13.8945 12.5474C13.9246 12.5628 13.9472 12.5782 13.9697 12.5898C14.8495 12.998 15.0676 14.0261 14.436 14.7885C14.0637 15.2352 13.5749 15.4586 13.0223 15.5548C12.368 15.6703 11.7138 15.6742 11.0596 15.5625C10.4016 15.4509 10.1084 15.0311 10.2512 14.3727C10.552 12.9787 10.8679 11.5886 11.1686 10.1908C11.2062 10.0098 11.289 9.93668 11.4694 9.92128C12.2252 9.85582 12.9771 9.73644 13.7329 9.90202C13.9735 9.95593 14.2179 10.0329 14.4435 10.1369C14.8571 10.3294 15.1014 10.6722 15.1165 11.1419C15.1353 11.6194 14.9097 11.9814 14.5224 12.2278C14.3269 12.3511 14.1088 12.4396 13.8945 12.5474ZM11.8868 13.1096C11.8793 13.1173 11.8755 13.125 11.8717 13.1289C11.7965 13.4639 11.7251 13.8028 11.6499 14.1378C11.5334 14.6615 11.5446 14.6807 12.071 14.6692C12.4583 14.6615 12.8343 14.596 13.1426 14.3342C13.5599 13.9799 13.4697 13.3368 12.9659 13.1404C12.8192 13.0827 12.65 13.0673 12.4921 13.0634C12.2928 13.0634 12.0936 13.0904 11.8868 13.1096ZM12.5598 12.1316C12.9959 12.1316 13.293 12.0469 13.5298 11.8466C13.7178 11.6887 13.8269 11.4924 13.7667 11.2421C13.7028 10.9918 13.5223 10.8531 13.2817 10.8185C13.0674 10.7877 12.8455 10.8031 12.6312 10.7838C12.4696 10.7684 12.3793 10.8262 12.3455 10.9841C12.2966 11.2074 12.2402 11.4307 12.1913 11.6579C12.0936 12.1277 12.0936 12.1277 12.5598 12.1316Z" fill="#253B80"/>
<path d="M22.2865 13.7835C22.1737 13.7758 22.0496 13.7643 21.9256 13.7527C21.794 13.7373 21.7225 13.7681 21.6925 13.926C21.6285 14.2726 21.5496 14.6153 21.4669 14.9541C21.339 15.4778 21.1473 15.6318 20.6247 15.6434C20.4743 15.6473 20.3239 15.6357 20.1735 15.6473C20.0005 15.6588 19.9705 15.5856 20.0043 15.4278C20.2036 14.5421 20.3953 13.6526 20.5908 12.7669C20.7638 11.9737 20.9367 11.1805 21.1059 10.3872C21.1849 10.0253 21.2413 9.9598 21.5947 9.91744C22.3128 9.83658 23.031 9.80962 23.7453 9.93284C24.9297 10.1369 25.4824 11.2998 24.8996 12.3819C24.4484 13.2252 23.7153 13.641 22.8016 13.745C22.6362 13.7643 22.467 13.772 22.2865 13.7835ZM22.9069 10.8262C22.9031 10.8378 22.9031 10.8146 22.8994 10.8262C22.8242 10.8262 22.749 10.8262 22.6738 10.8262C22.5121 10.8301 22.4219 10.9186 22.388 11.0765C22.2978 11.5078 22.2038 11.939 22.1211 12.3703C22.0647 12.6668 22.1286 12.7438 22.4219 12.7477C22.5234 12.7515 22.6211 12.7515 22.7227 12.74C23.4107 12.6861 23.9033 12.1585 23.8882 11.5039C23.8807 11.2305 23.7604 11.0303 23.516 10.934C23.3242 10.8647 23.1206 10.8429 22.9069 10.8262Z" fill="#253B80"/>
<path d="M20.2186 11.2036C19.8689 11.0919 19.5493 10.9494 19.2185 10.8917C18.5041 10.7646 17.8913 10.9841 17.4401 11.5809C17.0415 12.1085 16.8535 12.7092 16.925 13.3792C17.0115 14.1917 17.6769 14.7269 18.4665 14.6076C18.7222 14.5691 18.9666 14.4612 19.211 14.3688C19.3275 14.3265 19.4328 14.2572 19.5869 14.1763C19.493 14.5575 19.4328 14.9079 19.3162 15.2314C19.2711 15.3584 19.1132 15.4894 18.9778 15.5317C18.1808 15.7897 17.3912 15.7859 16.6242 15.4008C16.0076 15.0928 15.6504 14.5883 15.5376 13.9067C15.4022 13.0981 15.4549 12.3049 15.8083 11.5578C16.361 10.3834 17.7409 9.24742 19.7148 9.90204C20.369 10.1177 20.463 10.2948 20.2825 10.9802C20.26 11.0611 20.2374 11.142 20.2186 11.2036Z" fill="#253B80"/>
<path d="M27.3022 10.4373C27.4461 10.7517 27.5249 11.0687 27.5248 11.3904C27.5248 11.4037 27.5247 11.417 27.5244 11.4303C27.5197 11.6588 27.4748 11.8898 27.3849 12.1239C27.3586 12.1932 27.321 12.2625 27.2909 12.3318C27.0428 12.1239 26.8096 11.9005 26.5465 11.7195C26.2908 11.5424 26.005 11.4038 25.7268 11.2459C25.896 10.8531 26.1404 10.5412 26.5239 10.3449C26.8134 10.1908 27.0691 10.2139 27.3022 10.4373Z" fill="#253B80"/>
<path fill-rule="evenodd" clip-rule="evenodd" d="M27.3022 10.4373C27.4458 10.7512 27.5247 11.0689 27.5248 11.3904C27.5249 11.0687 27.4461 10.7517 27.3022 10.4373Z" fill="#253B80"/>
<path d="M27.3022 10.4373C28.0504 10.8108 28.6332 11.3691 29.0242 12.12C29.2235 12.5012 29.1408 12.8863 28.9039 13.2251C28.3174 14.0646 27.5503 14.6807 26.6367 15.1043C26.0765 15.3623 25.4223 15.0889 25.1741 14.5151C25.114 14.3765 25.2004 14.3495 25.2832 14.3033C25.8208 14.0222 26.3171 13.6795 26.7457 13.2367C26.9939 12.9787 27.1894 12.6822 27.2909 12.3318C27.321 12.2625 27.3586 12.197 27.3849 12.1239C27.4803 11.8772 27.5249 11.6327 27.5248 11.3903C27.5247 11.0689 27.4458 10.7512 27.3022 10.4373Z" fill="#F75136"/>
<path fill-rule="evenodd" clip-rule="evenodd" d="M27.3022 10.4373C27.4461 10.7517 27.5249 11.0687 27.5248 11.3903C27.5247 11.0689 27.4458 10.7512 27.3022 10.4373Z" fill="#F75136"/>
<path d="M8.01166 10.4233C8.15553 10.7378 8.2344 11.0548 8.23427 11.3765C8.23427 11.3898 8.23414 11.4031 8.23388 11.4164C8.22913 11.6449 8.18428 11.8758 8.09437 12.1099C8.06806 12.1792 8.03046 12.2486 8.00038 12.3179C7.75223 12.1099 7.51911 11.8866 7.25593 11.7056C7.00026 11.5285 6.71451 11.3899 6.43628 11.232C6.60547 10.8392 6.84986 10.5273 7.23337 10.3309C7.52287 10.1769 7.77855 10.2 8.01166 10.4233Z" fill="#253B80"/>
<path fill-rule="evenodd" clip-rule="evenodd" d="M8.01166 10.4233C8.15529 10.7373 8.23414 11.055 8.23427 11.3765C8.2344 11.0548 8.15553 10.7378 8.01166 10.4233Z" fill="#253B80"/>
<path d="M8.01167 10.4233C8.75988 10.7969 9.34266 11.3552 9.73368 12.1061C9.93295 12.4873 9.85024 12.8724 9.61336 13.2112C9.02683 14.0507 8.25982 14.6668 7.34618 15.0904C6.78596 15.3484 6.13175 15.075 5.8836 14.5012C5.82344 14.3626 5.90992 14.3356 5.99263 14.2894C6.53029 14.0083 7.02659 13.6656 7.45522 13.2228C7.70336 12.9648 7.89888 12.6683 8.00039 12.3179C8.03047 12.2486 8.06807 12.1831 8.09439 12.1099C8.18975 11.8633 8.23439 11.6188 8.23428 11.3764C8.23414 11.055 8.15529 10.7373 8.01167 10.4233Z" fill="#F75136"/>
<path fill-rule="evenodd" clip-rule="evenodd" d="M8.01167 10.4233C8.15553 10.7378 8.2344 11.0548 8.23428 11.3764C8.23414 11.055 8.15529 10.7373 8.01167 10.4233Z" fill="#F75136"/>
</svg>
