<svg width="36" height="25" viewBox="0 0 36 25" fill="none" xmlns="http://www.w3.org/2000/svg">
<rect y="0.710083" width="35.0764" height="24" rx="4.06" fill="#FAEDFD"/>
<path fill-rule="evenodd" clip-rule="evenodd" d="M1.5623 1.5321C0.611342 2.27517 0 3.43276 0 4.73313V20.6131C0 21.9135 0.611343 23.0711 1.5623 23.8141V1.5321Z" fill="#D0A5DA"/>
<path fill-rule="evenodd" clip-rule="evenodd" d="M24.9987 8.07166C25.6345 8.39185 25.6697 9.98285 25.0761 11.5661C24.6581 12.681 24.032 13.156 23.3151 12.9021C23.1997 12.8612 23.0355 12.776 22.9502 12.7127C22.8649 12.6493 22.7853 12.6074 22.7735 12.6195C22.7412 12.6526 22.5778 13.8066 22.602 13.8309C22.6135 13.8424 22.9672 13.8055 23.388 13.7489C25.9378 13.4058 27.132 13.321 27.4067 13.4636C27.576 13.5515 27.6156 13.6341 27.6156 13.8995C27.6156 14.2508 27.4882 14.2952 25.9741 14.4707C25.0272 14.5805 22.8295 14.8656 22.5549 14.9141C22.4173 14.9385 22.3878 14.9708 22.3582 15.1293C22.3039 15.4196 22.1892 15.599 21.9996 15.6897C21.8388 15.7667 21.8157 15.7666 21.6965 15.6882C21.5643 15.6013 21.4728 15.3142 21.5298 15.1653C21.5526 15.1054 21.5194 15.0876 21.3852 15.0876C21.0937 15.0876 18.19 15.6496 17.2196 15.8938L16.9032 15.9734L16.8175 16.2385C16.3153 17.7911 15.7091 18.8788 14.9588 19.5738C14.5495 19.9528 14.2426 20.1 13.8089 20.1253C13.3737 20.1505 13.1569 20.077 12.8971 19.8163C12.6757 19.594 12.5347 19.2374 12.5347 18.8996C12.5347 18.4989 12.8021 17.7418 13.1263 17.2246C13.6274 16.4252 14.6513 15.5826 15.5975 15.191C15.8173 15.1 16.0165 15.0074 16.0401 14.9851C16.0717 14.9554 16.6869 13.1635 16.6893 13.0944C16.6895 13.0886 16.5863 13.1946 16.46 13.3302C15.9565 13.8706 15.3459 14.0206 14.9761 13.6947C14.8781 13.6084 14.7697 13.4519 14.7351 13.3471C14.5857 12.8949 14.7453 11.9729 15.1744 10.8078C15.3294 10.3871 15.4072 10.094 15.4072 9.93157C15.4072 9.62698 15.4762 9.43789 15.5967 9.41215C15.7553 9.37816 16.0272 9.46096 16.156 9.58244C16.3427 9.7585 16.3166 10.0442 16.0269 10.9973C15.664 12.191 15.6348 12.5189 15.883 12.611C16.1695 12.7174 16.5195 12.3911 16.8442 11.7147C16.9529 11.4882 17.1975 10.8394 17.3878 10.2729C17.6988 9.3468 17.7547 9.22157 17.9428 9.03006C18.1864 8.78212 18.5169 8.65755 18.7309 8.73304C18.8066 8.75982 18.8765 8.82259 18.8861 8.87254C18.9023 8.9571 18.6324 9.95788 17.6855 13.3243C17.4763 14.0679 17.3052 14.6834 17.3052 14.692C17.3052 14.7007 17.7034 14.6323 18.19 14.5402C18.6767 14.448 19.6748 14.283 20.408 14.1735L21.7411 13.9745L21.7994 13.7114C21.8313 13.5667 21.8733 13.3424 21.8927 13.2129L21.9279 12.9775L21.6673 13.1089C21.3843 13.2516 21.0803 13.2814 20.8992 13.1841C20.8361 13.1503 20.7432 13.0298 20.6926 12.9163L20.6006 12.7101L20.4789 12.9309C20.2327 13.3779 19.7494 13.6112 19.3138 13.4935C18.8263 13.3617 18.6382 13.0241 18.5992 12.2101C18.5691 11.5845 18.6379 11.1286 18.8564 10.5046C19.2197 9.46714 19.6432 8.8695 20.2246 8.57403C20.4575 8.4556 20.8941 8.48917 21.099 8.64118L21.2476 8.75148L21.341 8.55956C21.4421 8.35194 21.5297 8.31455 21.797 8.36492C22.0242 8.40771 22.127 8.51806 22.127 8.71935C22.127 8.80962 22.0107 9.41544 21.8685 10.0656C21.4459 11.9988 21.4585 12.3013 21.9491 11.9969C22.0413 11.9397 22.1283 11.8627 22.1424 11.8259C22.1565 11.7891 22.3112 11.0075 22.4862 10.089C22.6613 9.17059 22.8392 8.36404 22.8815 8.29674C22.9509 8.18649 22.984 8.17738 23.215 8.20487C23.5619 8.24612 23.6323 8.3126 23.5926 8.56157L23.561 8.76049L23.7811 8.48685C24.1492 8.02933 24.6057 7.87366 24.9987 8.07166ZM23.6245 9.71823C23.7174 9.51606 23.8681 9.2934 23.9821 9.19C24.0949 9.08763 24.2332 9.01132 24.3058 9.01132C24.9087 9.01132 24.451 11.4733 23.7633 11.9302C23.5669 12.0607 23.3679 12.0922 23.1595 12.0258C23.0466 11.9899 23.0408 11.9696 23.0731 11.7254C23.1345 11.2605 23.4595 10.0778 23.6245 9.71823ZM19.5384 11.5109C19.5419 10.6495 19.9701 9.77235 20.533 9.47358C21.0019 9.22476 21.1693 9.40391 21.0254 10.0007C20.8842 10.5862 20.4983 11.7449 20.3703 11.9674C20.2003 12.2631 20.0091 12.3916 19.8485 12.3182C19.608 12.2082 19.5363 12.0216 19.5384 11.5109ZM13.6087 19.0754C13.1839 18.6895 14.1426 17.1939 15.2373 16.5345C15.4295 16.4187 15.6066 16.3238 15.6308 16.3237C15.7006 16.3233 15.6227 16.5699 15.3949 17.0701C14.7657 18.4519 13.9411 19.3775 13.6087 19.0754Z" fill="#5F0B72"/>
<path fill-rule="evenodd" clip-rule="evenodd" d="M28.411 7.67264C28.6859 7.84319 28.8143 8.13629 28.78 8.51524C28.7412 8.94552 28.4165 9.59007 28.064 9.93678C27.7598 10.236 27.2128 10.5332 26.8718 10.5845C26.6623 10.6161 26.6382 10.635 26.5908 10.8064C26.4908 11.1676 26.5443 11.5366 26.7128 11.6496C26.7438 11.6704 26.8647 11.6877 26.9814 11.6882C27.2413 11.6891 27.7264 11.3842 28.0135 11.0395C28.2647 10.7378 28.4062 10.7359 28.5403 11.0324C28.7169 11.423 28.6884 11.5112 28.244 11.9468C27.294 12.878 26.2488 13.0297 25.8048 12.3008C25.0958 11.1368 26.158 8.071 27.4346 7.59664C27.7172 7.49159 28.1769 7.52738 28.411 7.67264ZM27.2062 8.9068C27.2961 8.76616 27.4383 8.59309 27.5222 8.52224C27.7008 8.37136 27.7821 8.36189 27.8983 8.47852C28.0802 8.66117 27.8692 9.14825 27.4784 9.44784C27.2564 9.61798 26.9161 9.76814 26.8662 9.71793C26.8246 9.67617 27.0344 9.17559 27.2062 8.9068Z" fill="#5F0B72"/>
<path fill-rule="evenodd" clip-rule="evenodd" d="M10.7251 8.99766C11.3106 9.16625 11.7757 9.4457 12.2305 9.9022C12.6959 10.3695 12.8013 10.5095 12.9878 10.9093C13.2123 11.3902 13.2991 11.8106 13.3013 12.4269C13.3036 13.0346 13.1979 13.5005 12.9438 14.0039C12.4825 14.9179 11.6199 15.6193 10.6127 15.8995C10.1035 16.0411 9.30253 16.0435 8.77096 15.9049C8.32941 15.7898 8.33674 15.7875 7.68923 16.2375C7.23799 16.551 7.13662 16.5945 7.04153 16.5153C6.95058 16.4395 6.95263 16.2229 7.05014 15.6147C7.09359 15.3435 7.1137 15.0729 7.09482 15.0132C7.076 14.9535 6.9692 14.7886 6.85753 14.6469C6.59879 14.3182 6.39684 13.9159 6.24634 13.4293C6.09502 12.9399 6.08353 12.0882 6.22146 11.5818C6.6764 9.91116 8.1966 8.79101 9.89495 8.87489C10.163 8.88813 10.5365 8.94338 10.7251 8.99766ZM7.97177 11.5764C8.04117 11.4219 8.12525 11.342 8.32222 11.2435C8.74105 11.034 9.30808 11.0901 9.65268 11.3753C9.86238 11.5488 9.99543 11.9553 9.90064 12.133C9.77261 12.3732 9.43329 12.2485 9.43329 11.9612C9.43329 11.578 8.75434 11.3835 8.45739 11.6816C8.20178 11.9381 8.39127 12.1689 9.10335 12.4685C9.35532 12.5745 9.62293 12.7157 9.69792 12.7822C10.2456 13.2677 9.99129 14.0582 9.24149 14.201C8.92628 14.261 8.53382 14.2056 8.29904 14.0679C7.97516 13.878 7.73792 13.3741 7.84246 13.0981C7.88616 12.9828 7.92073 12.9636 8.06108 12.9773C8.2145 12.9921 8.23287 13.0137 8.29047 13.2482C8.32494 13.3883 8.41204 13.5621 8.48401 13.6344C8.59958 13.7504 8.65719 13.7658 8.97691 13.7658C9.36907 13.7658 9.48458 13.6938 9.48458 13.4494C9.48458 13.2115 9.37307 13.0803 9.02928 12.9139C8.23297 12.5285 8.1353 12.4714 8.03779 12.3344C7.88837 12.1245 7.86189 11.8209 7.97177 11.5764ZM10.6257 13.0092C10.8919 12.519 11.2303 11.892 11.3778 11.6159C11.6222 11.1584 11.6592 11.1139 11.7946 11.1139C11.9962 11.1139 12.0816 11.2711 11.9844 11.4633C11.9196 11.5915 10.982 13.3339 10.6694 13.9071C10.5315 14.1599 10.4317 14.2292 10.2864 14.1732C10.0803 14.0938 10.1309 13.9204 10.6257 13.0092Z" fill="#01C1A8"/>
</svg>
