<svg width="36" height="25" viewBox="0 0 36 25" fill="none" xmlns="http://www.w3.org/2000/svg">
<rect y="0.710083" width="35.0764" height="24" rx="4.06" fill="#E6F0FF"/>
<path fill-rule="evenodd" clip-rule="evenodd" d="M1.5623 1.5321C0.611342 2.27517 0 3.43276 0 4.73313V20.6131C0 21.9135 0.611343 23.0711 1.5623 23.8141V1.5321Z" fill="#ABC1F7"/>
<g clip-path="url(#clip0_1_61982)">
<path d="M17.8709 11.439C17.8585 12.4102 18.7364 12.9522 19.3976 13.2744C20.0771 13.605 20.3053 13.817 20.3027 14.1127C20.2975 14.5652 19.7607 14.7649 19.2583 14.7727C18.3817 14.7863 17.8722 14.536 17.467 14.3467L17.1512 15.8242C17.5577 16.0116 18.3104 16.175 19.091 16.1821C20.9231 16.1821 22.1219 15.2777 22.1284 13.8754C22.1355 12.0958 19.6667 11.9972 19.6836 11.2017C19.6894 10.9605 19.9195 10.7032 20.4239 10.6377C20.6735 10.6046 21.3627 10.5793 22.1439 10.9392L22.4506 9.50961C22.0305 9.3566 21.4904 9.21008 20.8181 9.21008C19.0936 9.21008 17.8806 10.1268 17.8709 11.439ZM25.3972 9.33326C25.0627 9.33326 24.7807 9.52841 24.6549 9.82793L22.0376 16.0771H23.8685L24.2328 15.0703H26.4702L26.6815 16.0771H28.2952L26.887 9.33326H25.3972ZM25.6533 11.155L26.1817 13.6874H24.7346L25.6533 11.155ZM15.651 9.33326L14.2078 16.0771H15.9525L17.395 9.33326H15.651ZM13.07 9.33326L11.2541 13.9234L10.5196 10.0205C10.4333 9.58481 10.093 9.33326 9.71499 9.33326H6.74633L6.70483 9.52906C7.31426 9.66131 8.00666 9.87461 8.42612 10.1028C8.68286 10.2422 8.75612 10.3641 8.8404 10.6954L10.2317 16.0771H12.0755L14.9022 9.33326H13.07Z" fill="#1F5495"/>
</g>
<defs>
<clipPath id="clip0_1_61982">
<rect width="21.5904" height="7" fill="white" transform="translate(6.70483 9.21008)"/>
</clipPath>
</defs>
</svg>
